<svg width="750" height="817" version="1.1" xmlns="http://www.w3.org/2000/svg"><g transform="translate(100,100) scale(0.8)"><path class="link" d="M481.4145638543417,573.5999862336L481.4145638543417,537.7499954112001L497.5910303014005,537.7499954112001" id="node_8946:node_6148" style="fill: none; stroke-width: 3; stroke: grey; cursor: pointer;"></path><path class="link" d="M481.4145638543417,573.5999862336L481.4145638543417,609.4499770560001L484.4957955585434,609.4499770560001" id="node_8946:node_2847" style="fill: none; stroke-width: 3; stroke: grey; cursor: pointer;"></path><path class="link" d="M473.71148124145657,519.8249793504L473.71148124145657,466.04999311680007L494.50979524481795,466.04999311680007" id="node_2727:node_7678" style="fill: none; stroke-width: 3; stroke: grey; cursor: pointer;"></path><path class="link" d="M473.71148124145657,519.8249793504L473.71148124145657,573.599965584L481.41456050196075,573.599965584" id="node_2727:node_8946" style="fill: none; stroke-width: 3; stroke: grey; cursor: pointer;"></path><path class="link" d="M466.7787099070028,358.50002064960006L466.7787099070028,322.65002982720006L469.08963368515407,322.65002982720006" id="node_5938:node_6253" style="fill: none; stroke-width: 3; stroke: grey; cursor: pointer;"></path><path class="link" d="M466.7787099070028,358.50002064960006L466.7787099070028,394.35001147200006L483.725484280112,394.35001147200006" id="node_5938:node_6780" style="fill: none; stroke-width: 3; stroke: grey; cursor: pointer;"></path><path class="link" d="M460.61624373781507,439.16253097440006L460.61624373781507,358.5000516240001L466.77870714621844,358.5000516240001" id="node_3704:node_5938" style="fill: none; stroke-width: 3; stroke: grey; cursor: pointer;"></path><path class="link" d="M460.61624373781507,439.16253097440006L460.61624373781507,519.8250103248L473.7114784806722,519.8250103248" id="node_3704:node_2727" style="fill: none; stroke-width: 3; stroke: grey; cursor: pointer;"></path><path class="link" d="M449.8318860369747,560.1562104215999L449.8318860369747,439.162491396L460.6161970016806,439.162491396" id="node_1141:node_3704" style="fill: none; stroke-width: 3; stroke: grey; cursor: pointer;"></path><path class="link" d="M449.8318860369747,560.1562104215999L449.8318860369747,681.1499294471998L463.6974287058823,681.1499294471998" id="node_1141:node_9573" style="fill: none; stroke-width: 3; stroke: grey; cursor: pointer;"></path><path class="link" d="M267.26888646274506,405.5530960332L267.26888646274506,250.95001061160002L569.9999014005601,250.95001061160002" id="node_6147:node_4855" style="fill: none; stroke-width: 3; stroke: grey; cursor: pointer;"></path><path class="link" d="M267.26888646274506,405.5530960332L267.26888646274506,560.1561814547999L449.83186493669456,560.1561814547999" id="node_6147:node_1141" style="fill: none; stroke-width: 3; stroke: grey; cursor: pointer;"></path><path class="link" d="M184.84592181064426,292.40153883899995L184.84592181064426,179.25000530580002L327.3528881299719,179.25000530580002" id="node_1607:node_6056" style="fill: none; stroke-width: 3; stroke: grey; cursor: pointer;"></path><path class="link" d="M184.84592181064426,292.40153883899995L184.84592181064426,405.55307237219995L267.26886989803916,405.55307237219995" id="node_1607:node_6147" style="fill: none; stroke-width: 3; stroke: grey; cursor: pointer;"></path><path class="link" d="M120.14003038655461,199.9757602419L120.14003038655461,107.55000265290002L120.91033831260505,107.55000265290002" id="node_7123:node_8717" style="fill: none; stroke-width: 3; stroke: grey; cursor: pointer;"></path><path class="link" d="M120.14003038655461,199.9757602419L120.14003038655461,292.40151783089993L184.84589617478989,292.40151783089993" id="node_7123:node_1607" style="fill: none; stroke-width: 3; stroke: grey; cursor: pointer;"></path><path class="link" d="M20,117.91289062500002L20,35.85002100810002L483.7253714823528,35.85002100810002" id="node_5639:node_1861" style="fill: none; stroke-width: 3; stroke: grey; cursor: pointer;"></path><path class="link" d="M20,117.91289062500002L20,199.9757602419L120.14003038655461,199.9757602419" id="node_5639:node_7123" style="fill: none; stroke-width: 3; stroke: grey; cursor: pointer;"></path><g class="node" transform="translate(463.69747819632005,681.1500152364607)" id="node_9573" style="cursor: crosshair;"><circle class="node" r="4" style="fill: black;"></circle><rect class="node" y="-4px" x="-4px" width="0px" height="0px" style="stroke-width: 2px; stroke: black;"></rect><text x="13" dy=".3em" dx="-.3em" text-anchor="start" font-size="14px" style="fill-opacity: 1; font-family: sans-serif; font-weight: normal; fill: black;">6_tr_G3N3K3_G3N3K3_BOVIN_Glutamate_receptor_OS=Bos_taurus_OX=9913_GN=GRIN1_PE=3_SV=3</text><text class="triangleText" dy=".35em" font-size="14px" style="fill-opacity: 1e-06; font-family: sans-serif;"></text><path d="M0,0L0,0L0,0L0,0"></path></g><g class="node" transform="translate(484.4957883405012,609.4500094877396)" id="node_2847" style="cursor: crosshair;"><circle class="node" r="4" style="fill: black;"></circle><rect class="node" y="-4px" x="-4px" width="0px" height="0px" style="stroke-width: 2px; stroke: black;"></rect><text x="13" dy=".3em" dx="-.3em" text-anchor="start" font-size="14px" style="fill-opacity: 1; font-family: sans-serif; font-weight: normal; fill: black;">8_sp_P35439_NMDZ1_RAT_Glutamate_receptor_ionotropic__NMDA_1_OS=Rattus_norvegicus_OX=10116_GN=Grin1_PE=1_SV=1</text><text class="triangleText" dy=".35em" font-size="14px" style="fill-opacity: 1e-06; font-family: sans-serif;"></text><path d="M0,0L0,0L0,0L0,0"></path></g><g class="node" transform="translate(497.5910327085307,537.7500027192871)" id="node_6148" style="cursor: crosshair;"><circle class="node" r="4" style="fill: black;"></circle><rect class="node" y="-4px" x="-4px" width="0px" height="0px" style="stroke-width: 2px; stroke: black;"></rect><text x="13" dy=".3em" dx="-.3em" text-anchor="start" font-size="14px" style="fill-opacity: 1; font-family: sans-serif; font-weight: normal; fill: black;">7_sp_P35438_NMDZ1_MOUSE_Glutamate_receptor_ionotropic__NMDA_1_OS=Mus_musculus_OX=10090_GN=Grin1_PE=1_SV=1</text><text class="triangleText" dy=".35em" font-size="14px" style="fill-opacity: 1e-06; font-family: sans-serif;"></text><path d="M0,0L0,0L0,0L0,0"></path></g><g class="node" transform="translate(481.4145501969583,573.599971507007)" id="node_8946" style="cursor: crosshair;"><circle class="node" r="4" style="fill: black;"></circle><rect class="node" y="-4px" x="-4px" width="0px" height="0px" style="stroke-width: 2px; stroke: black;"></rect><text x="-13" dy="-.3em" dx=".3em" text-anchor="end" font-size="14px" style="fill-opacity: 1; font-family: sans-serif; font-weight: normal;"></text><text class="triangleText" dy=".35em" font-size="14px" style="fill-opacity: 1e-06; font-family: sans-serif;" x="0"></text><path d="M0,0L0,0L0,0L0,0"></path></g><g class="node" transform="translate(494.5097945649878,466.0499918719039)" id="node_7678" style="cursor: crosshair;"><circle class="node" r="4" style="fill: black;"></circle><rect class="node" y="-4px" x="-4px" width="0px" height="0px" style="stroke-width: 2px; stroke: black;"></rect><text x="13" dy=".3em" dx="-.3em" text-anchor="start" font-size="14px" style="fill-opacity: 1; font-family: sans-serif; font-weight: normal; fill: black;">2_tr_A0A1S2ZM97_A0A1S2ZM97_ERIEU_Glutamate_receptor_OS=Erinaceus_europaeus_OX=9365_GN=GRIN1_PE=3_SV=1</text><text class="triangleText" dy=".35em" font-size="14px" style="fill-opacity: 1e-06; font-family: sans-serif;"></text><path d="M0,0L0,0L0,0L0,0"></path></g><g class="node" transform="translate(473.7114858231077,519.8250060886307)" id="node_2727" style="cursor: crosshair;"><circle class="node" r="4" style="fill: black;"></circle><rect class="node" y="-4px" x="-4px" width="0px" height="0px" style="stroke-width: 2px; stroke: black;"></rect><text x="-13" dy="-.3em" dx=".3em" text-anchor="end" font-size="14px" style="fill-opacity: 1; font-family: sans-serif; font-weight: normal;"></text><text class="triangleText" dy=".35em" font-size="14px" style="fill-opacity: 1e-06; font-family: sans-serif;" x="0"></text><path d="M0,0L0,0L0,0L0,0"></path></g><g class="node" transform="translate(483.72549309932117,394.3500033842263)" id="node_6780" style="cursor: crosshair;"><circle class="node" r="4" style="fill: black;"></circle><rect class="node" y="-4px" x="-4px" width="0px" height="0px" style="stroke-width: 2px; stroke: black;"></rect><text x="13" dy=".3em" dx="-.3em" text-anchor="start" font-size="14px" style="fill-opacity: 1; font-family: sans-serif; font-weight: normal; fill: black;">9_sp_Q05586_NMDZ1_HUMAN_Glutamate_receptor_ionotropic__NMDA_1_OS=Homo_sapiens_OX=9606_GN=GRIN1_PE=1_SV=1</text><text class="triangleText" dy=".35em" font-size="14px" style="fill-opacity: 1e-06; font-family: sans-serif;"></text><path d="M0,0L0,0L0,0L0,0"></path></g><g class="node" transform="translate(469.0896299516661,322.6499966157737)" id="node_6253" style="cursor: crosshair;"><circle class="node" r="4" style="fill: black;"></circle><rect class="node" y="-4px" x="-4px" width="0px" height="0px" style="stroke-width: 2px; stroke: black;"></rect><text x="13" dy=".3em" dx="-.3em" text-anchor="start" font-size="14px" style="fill-opacity: 1; font-family: sans-serif; font-weight: normal; fill: black;">10_sp_Q5R1P0_NMDZ1_CANLF_Glutamate_receptor_ionotropic__NMDA_1_OS=Canis_lupus_familiaris_OX=9615_GN=GRIN1_PE=2_SV=2</text><text class="triangleText" dy=".35em" font-size="14px" style="fill-opacity: 1e-06; font-family: sans-serif;"></text><path d="M0,0L0,0L0,0L0,0"></path></g><g class="node" transform="translate(466.7787165735805,358.50000611840045)" id="node_5938" style="cursor: crosshair;"><circle class="node" r="4" style="fill: black;"></circle><rect class="node" y="-4px" x="-4px" width="0px" height="0px" style="stroke-width: 2px; stroke: black;"></rect><text x="-13" dy="-.3em" dx=".3em" text-anchor="end" font-size="14px" style="fill-opacity: 1; font-family: sans-serif; font-weight: normal;"></text><text class="triangleText" dy=".35em" font-size="14px" style="fill-opacity: 1e-06; font-family: sans-serif;" x="0"></text><path d="M0,0L0,0L0,0L0,0"></path></g><g class="node" transform="translate(460.61624063706887,439.1625152811151)" id="node_3704" style="cursor: crosshair;"><circle class="node" r="4" style="fill: black;"></circle><rect class="node" y="-4px" x="-4px" width="0px" height="0px" style="stroke-width: 2px; stroke: black;"></rect><text x="-13" dy="-.3em" dx=".3em" text-anchor="end" font-size="14px" style="fill-opacity: 1; font-family: sans-serif; font-weight: normal;"></text><text class="triangleText" dy=".35em" font-size="14px" style="fill-opacity: 1e-06; font-family: sans-serif;" x="0"></text><path d="M0,0L0,0L0,0L0,0"></path></g><g class="node" transform="translate(449.83192584952263,560.1562382730672)" id="node_1141" style="cursor: crosshair;"><circle class="node" r="4" style="fill: black;"></circle><rect class="node" y="-4px" x="-4px" width="0px" height="0px" style="stroke-width: 2px; stroke: black;"></rect><text x="-13" dy="-.3em" dx=".3em" text-anchor="end" font-size="14px" style="fill-opacity: 1; font-family: sans-serif; font-weight: normal;"></text><text class="triangleText" dy=".35em" font-size="14px" style="fill-opacity: 1e-06; font-family: sans-serif;" x="0"></text><path d="M0,0L0,0L0,0L0,0"></path></g><g class="node" transform="translate(569.9999770372871,250.95000867517615)" id="node_4855" style="cursor: crosshair;"><circle class="node" r="4" style="fill: black;"></circle><rect class="node" y="-4px" x="-4px" width="0px" height="0px" style="stroke-width: 2px; stroke: black;"></rect><text x="13" dy=".3em" dx="-.3em" text-anchor="start" font-size="14px" style="fill-opacity: 1; font-family: sans-serif; font-weight: normal; fill: black;">1_sp_A0A1L8F5J9_NMDZ1_XENLA_Glutamate_receptor_ionotropic__NMDA_1_OS=Xenopus_laevis_OX=8355_GN=grin1_PE=1_SV=1</text><text class="triangleText" dy=".35em" font-size="14px" style="fill-opacity: 1e-06; font-family: sans-serif;"></text><path d="M0,0L0,0L0,0L0,0"></path></g><g class="node" transform="translate(267.2689146465012,405.5531225207587)" id="node_6147" style="cursor: crosshair;"><circle class="node" r="4" style="fill: black;"></circle><rect class="node" y="-4px" x="-4px" width="0px" height="0px" style="stroke-width: 2px; stroke: black;"></rect><text x="-13" dy="-.3em" dx=".3em" text-anchor="end" font-size="14px" style="fill-opacity: 1; font-family: sans-serif; font-weight: normal;"></text><text class="triangleText" dy=".35em" font-size="14px" style="fill-opacity: 1e-06; font-family: sans-serif;" x="0"></text><path d="M0,0L0,0L0,0L0,0"></path></g><g class="node" transform="translate(327.35292498159555,179.2500085827546)" id="node_6056" style="cursor: crosshair;"><circle class="node" r="4" style="fill: black;"></circle><rect class="node" y="-4px" x="-4px" width="0px" height="0px" style="stroke-width: 2px; stroke: black;"></rect><text x="13" dy=".3em" dx="-.3em" text-anchor="start" font-size="14px" style="fill-opacity: 1; font-family: sans-serif; font-weight: normal; fill: black;">4_tr_A0A8D0GVX5_A0A8D0GVX5_SPHPU_Glutamate_receptor_OS=Sphenodon_punctatus_OX=8508_GN=GRIN1_PE=3_SV=1</text><text class="triangleText" dy=".35em" font-size="14px" style="fill-opacity: 1e-06; font-family: sans-serif;"></text><path d="M0,0L0,0L0,0L0,0"></path></g><g class="node" transform="translate(184.8459270987752,292.4015432823033)" id="node_1607" style="cursor: crosshair;"><circle class="node" r="4" style="fill: black;"></circle><rect class="node" y="-4px" x="-4px" width="0px" height="0px" style="stroke-width: 2px; stroke: black;"></rect><text x="-13" dy="-.3em" dx=".3em" text-anchor="end" font-size="14px" style="fill-opacity: 1; font-family: sans-serif; font-weight: normal;"></text><text class="triangleText" dy=".35em" font-size="14px" style="fill-opacity: 1e-06; font-family: sans-serif;" x="0"></text><path d="M0,0L0,0L0,0L0,0"></path></g><g class="node" transform="translate(120.91036218522294,107.55001006242445)" id="node_8717" style="cursor: crosshair;"><circle class="node" r="4" style="fill: black;"></circle><rect class="node" y="-4px" x="-4px" width="0px" height="0px" style="stroke-width: 2px; stroke: black;"></rect><text x="13" dy=".3em" dx="-.3em" text-anchor="start" font-size="14px" style="fill-opacity: 1; font-family: sans-serif; font-weight: normal; fill: black;">5_tr_A0A8V1AGU9_A0A8V1AGU9_CHICK_Glutamate_receptor_OS=Gallus_gallus_OX=9031_GN=GRIN1_PE=3_SV=1</text><text class="triangleText" dy=".35em" font-size="14px" style="fill-opacity: 1e-06; font-family: sans-serif;"></text><path d="M0,0L0,0L0,0L0,0"></path></g><g class="node" transform="translate(120.14004519960176,199.97577807713517)" id="node_7123" style="cursor: crosshair;"><circle class="node" r="4" style="fill: black;"></circle><rect class="node" y="-4px" x="-4px" width="0px" height="0px" style="stroke-width: 2px; stroke: black;"></rect><text x="-13" dy="-.3em" dx=".3em" text-anchor="end" font-size="14px" style="fill-opacity: 1; font-family: sans-serif; font-weight: normal;"></text><text class="triangleText" dy=".35em" font-size="14px" style="fill-opacity: 1e-06; font-family: sans-serif;" x="0"></text><path d="M0,0L0,0L0,0L0,0"></path></g><g class="node" transform="translate(483.7254592103283,35.85000469874317)" id="node_1861" style="cursor: crosshair;"><circle class="node" r="4" style="fill: black;"></circle><rect class="node" y="-4px" x="-4px" width="0px" height="0px" style="stroke-width: 2px; stroke: black;"></rect><text x="13" dy=".3em" dx="-.3em" text-anchor="start" font-size="14px" style="fill-opacity: 1; font-family: sans-serif; font-weight: normal; fill: black;">3_tr_A0A493TQ53_A0A493TQ53_ANAPP_Glutamate_receptor_OS=Anas_platyrhynchos_platyrhynchos_OX=8840_GN=GRIN1_PE=3_SV=1</text><text class="triangleText" dy=".35em" font-size="14px" style="fill-opacity: 1e-06; font-family: sans-serif;"></text><path d="M0,0L0,0L0,0L0,0"></path></g><g class="node" transform="translate(19.999998482962972,117.91287862933136)" id="node_5639" style="cursor: crosshair;"><circle class="node" r="4" style="fill: black;"></circle><rect class="node" y="-4px" x="-4px" width="0px" height="0px" style="stroke-width: 2px; stroke: black;"></rect><text x="-13" dy="-.3em" dx=".3em" text-anchor="end" font-size="14px" style="fill-opacity: 1; font-family: sans-serif; font-weight: normal;"></text><text class="triangleText" dy=".35em" font-size="14px" style="fill-opacity: 1e-06; font-family: sans-serif;" x="0"></text><path d="M0,0L0,0L0,0L0,0"></path></g></g></svg>